<?xml version="1.0" encoding="UTF-8" standalone="no"?>
<svg
   height="2.9724348in"
   width="4.5821848in"
   id="svg160"
   version="1.1"
   viewBox="0 0 439.88974 285.35375"
   xmlns="http://www.w3.org/2000/svg"
   xmlns:svg="http://www.w3.org/2000/svg"
   xmlns:rdf="http://www.w3.org/1999/02/22-rdf-syntax-ns#"
   xmlns:cc="http://creativecommons.org/ns#"
   xmlns:dc="http://purl.org/dc/elements/1.1/">
  <metadata
     id="metadata164">
    <rdf:RDF>
      <cc:Work
         rdf:about="">
        <dc:format>image/svg+xml</dc:format>
        <dc:type
           rdf:resource="http://purl.org/dc/dcmitype/StillImage" />
        <dc:title>oxford_quad</dc:title>
      </cc:Work>
    </rdf:RDF>
  </metadata>
  <defs
     id="defs4">
    <style
       id="style2">.a{fill:#002147;}.b{fill:#fff;}.c{fill:#031844;}</style>
    <style
       id="style971">.a{fill:#002147;}.b{fill:#fff;}</style>
  </defs>
  <title
     id="title6">oxford_quad</title>
  <g
     style="stroke:#ffffff;stroke-width:1.88976;stroke-miterlimit:4;stroke-dasharray:none;stroke-opacity:1"
     transform="translate(-339.7779,14.157185)"
     id="g1015">
    <g
       style="stroke:#ffffff;stroke-width:1.88976;stroke-miterlimit:4;stroke-dasharray:none;stroke-opacity:1"
       id="g1005"
       transform="translate(340.72278,-13.212305)">
      <rect
         id="rect977"
         height="283.46399"
         width="438"
         class="a"
         x="0"
         y="0"
         style="fill:#002147;stroke:#ffffff;stroke-width:1.88976;stroke-miterlimit:4;stroke-dasharray:none;stroke-opacity:1" />
      <path
         id="path979"
         d="m 63.808,254.386 a 43.468,43.468 0 0 1 -16.85,-3.062 34.758,34.758 0 0 1 -12.374,-8.524 36.557,36.557 0 0 1 -7.648,-13.05 50.781,50.781 0 0 1 -2.611,-16.628 47.055,47.055 0 0 1 2.705,-16.084 38.546,38.546 0 0 1 7.8,-13.079 36.275,36.275 0 0 1 12.436,-8.787 41.246,41.246 0 0 1 16.663,-3.205 42.957,42.957 0 0 1 17.5,3.291 34.644,34.644 0 0 1 12.311,8.9 36.768,36.768 0 0 1 7.275,13.079 51.767,51.767 0 0 1 2.394,15.884 50.744,50.744 0 0 1 -1,9.959 43.621,43.621 0 0 1 -3.078,9.559 39.992,39.992 0 0 1 -5.285,8.557 33.205,33.205 0 0 1 -7.617,6.9 37.8,37.8 0 0 1 -10.029,4.604 43.769,43.769 0 0 1 -12.592,1.686 z m 1.181,-4.121 a 23.065,23.065 0 0 0 11.41,-2.719 23.893,23.893 0 0 0 8.145,-7.47 34.8,34.8 0 0 0 4.912,-11.19 55.88,55.88 0 0 0 1.644,-13.881 67.718,67.718 0 0 0 -1.71,-15.74 36.878,36.878 0 0 0 -5.223,-12.307 24.759,24.759 0 0 0 -8.86,-8.013 26.378,26.378 0 0 0 -12.622,-2.862 22.889,22.889 0 0 0 -11.841,2.917 24.167,24.167 0 0 0 -8.083,7.757 34.588,34.588 0 0 0 -4.6,11.161 58.388,58.388 0 0 0 -1.461,13.195 68.123,68.123 0 0 0 1.678,15.57 37.738,37.738 0 0 0 5.161,12.392 24.349,24.349 0 0 0 21.451,11.19 z"
         class="b"
         style="fill:#ffffff;stroke:#ffffff;stroke-width:1.88976;stroke-miterlimit:4;stroke-dasharray:none;stroke-opacity:1" />
      <path
         id="path981"
         d="m 114.2,250.035 4.85,-1.431 a 11.013,11.013 0 0 0 3.047,-1.458 11.276,11.276 0 0 0 1.927,-1.575 l 16.788,-19.461 -16.664,-22.151 a 7.533,7.533 0 0 0 -1.8,-1.775 8.693,8.693 0 0 0 -2.923,-1.259 l -4.6,-1.2 v -2.577 H 142.8 v 2.577 l -8.146,1.774 9.762,13.737 3.295,4.808 14.3,-18.317 -7.9,-2 v -2.577 h 21.887 v 2.577 l -4.85,1.43 a 11,11 0 0 0 -3.046,1.459 11.219,11.219 0 0 0 -1.928,1.575 l -16.043,18.774 17.356,22.835 a 7.525,7.525 0 0 0 1.8,1.775 8.643,8.643 0 0 0 2.921,1.259 l 4.415,1.2 v 2.577 h -27.914 v -2.577 l 8.27,-1.774 -10.446,-14.423 -3.295,-4.808 -15.047,19 7.9,2 v 2.577 H 114.2 Z"
         class="b"
         style="fill:#ffffff;stroke:#ffffff;stroke-width:1.88976;stroke-miterlimit:4;stroke-dasharray:none;stroke-opacity:1" />
      <path
         id="path983"
         d="m 186.356,249.922 7.9,-1.546 a 3.963,3.963 0 0 0 2.083,-1.2 3.109,3.109 0 0 0 0.84,-2.175 v -63.65 a 3.184,3.184 0 0 0 -0.84,-2.232 3.969,3.969 0 0 0 -2.083,-1.2 l -7.9,-1.488 v -2.691 h 31.462 a 68.176,68.176 0 0 1 11.129,0.8 39.2,39.2 0 0 1 8.239,2.2 22.143,22.143 0 0 1 5.72,3.262 16.29,16.29 0 0 1 3.607,4.036 14.778,14.778 0 0 1 1.865,4.55 21.715,21.715 0 0 1 0.529,4.722 19.016,19.016 0 0 1 -1.9,8.644 22.586,22.586 0 0 1 -4.787,6.467 26.357,26.357 0 0 1 -6.312,4.379 29.556,29.556 0 0 1 -6.4,2.376 l 23.564,28.624 a 16.2,16.2 0 0 0 1.368,1.46 19.069,19.069 0 0 0 1.679,1.43 13.546,13.546 0 0 0 1.772,1.145 6.46,6.46 0 0 0 1.71,0.659 l 6.964,1.431 v 2.69 h -13.12 a 22.253,22.253 0 0 1 -4.632,-0.4 9.586,9.586 0 0 1 -3.2,-1.287 11.7,11.7 0 0 1 -2.518,-2.233 q -1.152,-1.344 -2.643,-3.234 l -22.01,-27.99 -10.074,-1.774 V 245 a 3.286,3.286 0 0 0 0.715,2.175 3.779,3.779 0 0 0 1.96,1.2 l 9.2,1.546 v 2.69 h -33.887 z m 22.01,-37.778 a 13.444,13.444 0 0 0 1.928,0.286 q 1.243,0.114 2.674,0.2 1.431,0.086 2.767,0.115 c 0.891,0.02 1.626,0.028 2.207,0.028 a 22.214,22.214 0 0 0 8.425,-1.459 17.44,17.44 0 0 0 5.938,-3.864 15.7,15.7 0 0 0 3.544,-5.552 18.591,18.591 0 0 0 1.182,-6.582 20.481,20.481 0 0 0 -1.368,-7.871 13.646,13.646 0 0 0 -3.949,-5.409 16.6,16.6 0 0 0 -6.372,-3.12 34.033,34.033 0 0 0 -8.644,-1 h -8.332 z"
         class="b"
         style="fill:#ffffff;stroke:#ffffff;stroke-width:1.88976;stroke-miterlimit:4;stroke-dasharray:none;stroke-opacity:1" />
      <path
         id="path985"
         d="m 273.745,229.03 h 3.3 l 4.912,11.39 a 5.965,5.965 0 0 0 1.212,1.6 8.12,8.12 0 0 0 1.586,1.317 39.238,39.238 0 0 0 4.849,2.4 52.1,52.1 0 0 0 5.224,1.861 47.644,47.644 0 0 0 4.974,1.2 23.654,23.654 0 0 0 4.166,0.429 23.161,23.161 0 0 0 7.119,-1.03 15.417,15.417 0 0 0 5.472,-3 13.047,13.047 0 0 0 3.482,-4.866 16.963,16.963 0 0 0 1.212,-6.611 12.157,12.157 0 0 0 -3.109,-8.615 22.275,22.275 0 0 0 -8.394,-5.409 43.162,43.162 0 0 0 -4.663,-1.516 q -2.3,-0.6 -4.632,-1.174 -2.332,-0.574 -4.664,-1.173 a 46.7,46.7 0 0 1 -4.632,-1.459 24.025,24.025 0 0 1 -10.787,-7.385 18.167,18.167 0 0 1 -3.824,-11.676 20.786,20.786 0 0 1 2.052,-9.13 23.082,23.082 0 0 1 5.689,-7.441 26.851,26.851 0 0 1 8.612,-4.98 31.325,31.325 0 0 1 10.756,-1.8 62.576,62.576 0 0 1 6.28,0.315 q 3.108,0.315 6.094,0.83 2.986,0.515 5.782,1.231 2.8,0.715 5.409,1.517 v 18.6 h -3.3 l -4.29,-10.589 a 3.576,3.576 0 0 0 -1.15,-1.546 q -0.84,-0.687 -1.523,-1.144 a 15.922,15.922 0 0 0 -3.482,-1.775 36.928,36.928 0 0 0 -4.073,-1.259 36.4,36.4 0 0 0 -4.073,-0.772 27.165,27.165 0 0 0 -3.419,-0.258 21.1,21.1 0 0 0 -6.56,0.944 14.6,14.6 0 0 0 -4.88,2.605 11.392,11.392 0 0 0 -3.079,4.006 11.953,11.953 0 0 0 -1.088,5.095 21.945,21.945 0 0 0 0.5,4.693 12.753,12.753 0 0 0 1.8,4.293 14.539,14.539 0 0 0 3.576,3.692 20.1,20.1 0 0 0 5.75,2.833 q 2.238,0.745 4.446,1.317 2.208,0.572 4.446,1.145 2.238,0.573 4.57,1.259 2.332,0.686 4.881,1.659 a 45.138,45.138 0 0 1 5.627,2.6 20.917,20.917 0 0 1 4.943,3.749 17.5,17.5 0 0 1 3.513,5.323 18.368,18.368 0 0 1 1.337,7.327 23.975,23.975 0 0 1 -1.772,8.958 21.476,21.476 0 0 1 -5.6,7.928 29.13,29.13 0 0 1 -9.793,5.666 41.873,41.873 0 0 1 -14.3,2.175 40.862,40.862 0 0 1 -5.751,-0.429 q -3.018,-0.429 -6.218,-1.116 -3.2,-0.687 -6.5,-1.6 -3.3,-0.915 -6.528,-1.889 z"
         class="b"
         style="fill:#ffffff;stroke:#ffffff;stroke-width:1.88976;stroke-miterlimit:4;stroke-dasharray:none;stroke-opacity:1" />
      <path
         id="path987"
         d="m 346.15,249.922 7.9,-1.546 a 3.963,3.963 0 0 0 2.083,-1.2 3.108,3.108 0 0 0 0.839,-2.175 v -63.65 a 3.183,3.183 0 0 0 -0.839,-2.232 3.969,3.969 0 0 0 -2.083,-1.2 l -7.9,-1.488 v -2.691 h 62.426 v 18.488 h -3.482 l -4.415,-12.191 a 3.919,3.919 0 0 0 -0.87,-1.431 2.251,2.251 0 0 0 -1.679,-0.573 h -29.97 v 31.31 h 19.648 a 2.615,2.615 0 0 0 1.8,-0.515 3.441,3.441 0 0 0 0.87,-1.317 l 3.545,-9.387 h 3.046 v 26.845 h -3.046 l -3.545,-9.272 a 3.618,3.618 0 0 0 -0.87,-1.46 2.526,2.526 0 0 0 -1.8,-0.544 H 368.16 v 34.572 h 35.317 a 2.318,2.318 0 0 0 1.679,-0.544 3.6,3.6 0 0 0 0.87,-1.459 l 4.167,-13.8 h 3.482 v 20.149 H 346.15 Z"
         class="b"
         style="fill:#ffffff;stroke:#ffffff;stroke-width:1.88976;stroke-miterlimit:4;stroke-dasharray:none;stroke-opacity:1" />
      <path
         id="path989"
         d="m 413.522,141.1 a 2,2 0 0 1 -1.825,-1.181 l -9.72,-21.626 h -0.868 a 2,2 0 0 1 -2,-2 v -11 a 2,2 0 0 1 -1.441,-1.921 v -4.8 h -0.574 a 1.932,1.932 0 0 1 -0.324,-0.026 1.967,1.967 0 0 1 -0.551,0.078 h -0.986 v 4.435 a 2,2 0 0 1 -0.994,1.729 l 0.273,12.022 a 2,2 0 0 1 -1.72,2.026 l -13.492,1.907 a 2,2 0 0 1 -2.279,-1.981 v -12.816 a 2,2 0 0 1 -1.6,-1.959 V 98.8 l -0.737,-0.023 a 1.825,1.825 0 0 0 -1.072,0.156 h -0.832 v 5.052 a 2,2 0 0 1 -0.847,1.634 l -0.06,0.043 L 371.5,118 a 2,2 0 0 1 -1.525,1.881 l -10.964,2.676 a 2,2 0 0 1 -2.469,-1.791 l -1.716,-22.615 a 2,2 0 0 1 -0.884,-1.325 l -1.678,-9.279 -0.083,-0.01 a 1.643,1.643 0 0 0 -2.675,0.224 2.01,2.01 0 0 1 -2.053,-1.657 l -7.665,-44.212 -6.508,44.316 a 2,2 0 0 1 -1.978,1.71 h -0.01 a 2,2 0 0 1 -1.6,-0.808 l -0.987,9.214 a 2,2 0 0 1 -3.667,0.875 l -2.5,7.285 a 2,2 0 0 1 -1.852,1.349 l -15.547,0.308 a 1.9,1.9 0 0 1 -1.44,-0.571 2,2 0 0 1 -0.6,-1.428 v -6.075 a 2.007,2.007 0 0 1 0.206,-0.884 v -0.949 l -3.464,0.048 v 0.756 a 2.012,2.012 0 0 1 -0.082,0.566 2.028,2.028 0 0 1 0.082,0.566 v 6.487 a 2,2 0 0 1 -2.049,2 h -0.063 V 139.1 a 2,2 0 0 1 -2,2 H 282.4 a 2,2 0 0 1 -2,-2 v -14.852 l -1.557,-1.634 a 2,2 0 0 1 -0.553,-1.38 v -2.667 l -0.825,-0.687 a 2,2 0 0 1 -0.72,-1.537 V 100.4 l -0.805,-6.736 -0.05,0.006 A 2,2 0 0 1 273.675,91.957 2,2 0 0 1 272,89.985 v -0.211 l -0.4,-1.077 -2.064,-3.755 -1.115,-1.2 -2.878,-2.542 a 1.955,1.955 0 0 1 -0.209,-0.208 l -2.282,-2.587 a 1.977,1.977 0 0 1 -0.309,-0.45 l -0.285,-0.571 -0.362,1.448 a 2,2 0 0 1 -0.294,0.651 l -1.03,1.493 a 2.025,2.025 0 0 1 -0.446,0.464 l -1.142,0.856 -1,0.949 c -0.047,0.044 -0.1,0.086 -0.145,0.125 l -2.515,1.972 -1,1.047 -0.714,1.111 -0.339,1.78 a 2,2 0 0 1 -1.935,1.625 l -2.62,0.039 -0.237,9.3 0.272,17.022 a 2,2 0 0 1 -2,2.032 h -1.621 a 2,2 0 0 1 -2,-2 v -8.254 l -0.725,-1.127 a 2,2 0 0 1 -0.318,-1.082 v -0.981 l -0.786,-0.032 a 2,2 0 0 1 -1.917,-2 v -4.211 a 2,2 0 0 1 -1.06,-0.852 l -0.657,-1.081 c -0.026,-0.044 -0.052,-0.088 -0.074,-0.134 l -1.227,-2.417 -1.424,-2.207 -1.735,-2.089 -3.587,-3.337 -2.464,-1.394 a 2,2 0 0 1 -1.015,-1.741 v -0.088 l -0.939,-0.037 a 2,2 0 0 1 -1.919,-2 v -2.06 l -0.727,-1.709 a 2,2 0 0 1 -0.161,-0.784 v -5.9 l -0.294,-1.042 -0.624,-0.667 -1.036,-0.679 a 1.886,1.886 0 0 1 -0.245,-0.19 l -0.455,-0.411 a 1.986,1.986 0 0 1 -0.643,0.807 l -0.768,0.568 -0.494,0.493 -0.166,0.583 v 6.285 a 2.057,2.057 0 0 1 -0.072,0.534 l -0.623,2.247 v 1.968 a 2,2 0 0 1 -1.931,2 l -1.39,0.048 v 0.655 a 2,2 0 0 1 -0.8,1.6 l -1.904,1.42 -3.841,3.362 -1.393,1.714 -1.341,1.741 -1.363,2.152 -0.958,1.917 a 2,2 0 0 1 -0.949,0.922 v 3.011 a 2,2 0 0 1 -2.328,1.973 l -1.007,-0.168 -0.069,0.16 v 0.009 l 0.256,0.151 a 2,2 0 0 1 0.869,2.4 l -0.515,1.441 a 1.99,1.99 0 0 1 -0.656,0.907 l -0.154,0.12 v 2.11 a 2,2 0 0 1 -0.285,1.03 2,2 0 0 1 0.285,1.03 v 5.559 a 2.009,2.009 0 0 1 -0.218,0.909 l -2.677,5.251 a 2,2 0 0 1 -1.584,1.082 l -1.029,0.1 a 2,2 0 0 1 -2.125,-1.455 l -0.576,-2.072 -6.1,0.656 V 139.1 a 2,2 0 0 1 -2,2 h -42.85 a 2,2 0 0 1 -2,-1.991 l -0.134,-30.649 a 1.935,1.935 0 0 1 -0.93,0.207 l -4.6,-0.1 a 2,2 0 0 1 -1.477,-0.7 2,2 0 0 1 -1.405,0.622 l -3.476,0.077 a 2.006,2.006 0 0 1 -2.013,-1.648 l -0.794,-4.451 a 2,2 0 0 1 -1.948,1.544 h -0.007 l -11.351,-0.039 a 2,2 0 0 1 -1.975,-1.733 l -0.306,-2.272 -0.335,2.025 0.067,27.89 a 2,2 0 0 1 -2.086,2 l -12.51,-0.54 a 2,2 0 0 1 -1.639,-0.986 L 79.543,113.174 78.541,112.1 A 2,2 0 0 1 78,110.732 V 107.3 l -1.06,-1.1 a 2.047,2.047 0 0 1 -0.344,0.041 l -2.162,0.077 a 2.008,2.008 0 0 1 -2.009,-1.5 l -0.772,-3.012 a 2.057,2.057 0 0 1 -0.062,-0.476 l -0.155,-14.9 a 2.016,2.016 0 0 1 0.076,-0.565 1.98,1.98 0 0 1 -0.15,-0.662 L 71.073,79.788 70.061,79.76 a 2,2 0 0 1 -1.924,-1.706 l -2.484,-16.77 -2.124,17.031 a 2,2 0 0 1 -1.985,1.752 h -0.687 l -1.089,5.27 0.609,15.586 a 2,2 0 0 1 -0.178,0.906 l -0.169,0.373 0.341,3.956 a 2,2 0 0 1 -1.993,2.172 H 55.83 a 2,2 0 0 1 -1.707,-0.957 v 3.976 a 2,2 0 0 1 -0.19,0.852 l -0.408,0.868 0.6,14.259 a 2,2 0 0 1 -2,2.083 h -13.2 a 2,2 0 0 1 -1.977,-1.7 l -4.321,-28.272 -3.488,27.146 a 2.01,2.01 0 0 1 -0.262,0.762 l -2.392,4.053 0.088,7.678 A 2,2 0 0 1 24.6,141.1 2.034,2.034 0 0 1 22.577,139.123 l -0.095,-8.237 a 2,2 0 0 1 0.279,-1.041 l 2.467,-4.175 4.677,-36.4 0.652,-8.877 a 1.963,1.963 0 0 1 2,-1.854 2,2 0 0 1 1.987,1.871 l 0.574,8.832 5.519,36.17 h 9.4 l -0.53,-12.666 a 2,2 0 0 1 0.188,-0.935 l 0.427,-0.908 v -4.263 a 2,2 0 0 1 0.178,-0.824 l 2.934,-6.487 a 2,2 0 0 1 3.047,-0.758 l -0.52,-13.32 a 2.009,2.009 0 0 1 0.04,-0.483 l 1.467,-7.1 a 2,2 0 0 1 1.958,-1.6 h 0.551 L 63.5,46.236 a 2,2 0 0 1 3.964,-0.045 l 4.384,29.609 1.179,0.033 a 2,2 0 0 1 1.943,1.897 l 0.305,5.739 a 2,2 0 0 1 1.088,1.78 v 0.7 a 2,2 0 0 1 -0.914,1.679 l 0.1,9.913 c 0.025,-0.021 0.051,-0.042 0.078,-0.062 a 2,2 0 0 1 1.639,-0.355 l 0.695,0.155 a 2,2 0 0 1 1.565,1.952 v 3.9 l 1.906,1.965 A 2,2 0 0 1 82,106.484 v 3.457 l 0.617,0.658 a 1.966,1.966 0 0 1 0.266,0.356 l 9.642,16.435 9.331,0.4 -0.062,-25.964 a 1.948,1.948 0 0 1 0.027,-0.332 l 2.538,-15.341 a 2,2 0 0 1 3.955,0.06 l 1.853,13.756 7.98,0.027 1.775,-8.42 a 2,2 0 0 1 3.926,0.061 l 2.3,12.883 h 0.029 l 1.079,-8.96 a 2,2 0 0 1 1.951,-1.761 1.959,1.959 0 0 1 2.011,1.691 l 1.425,9.108 0.88,0.019 V 101 a 2.2,2.2 0 0 1 0.019,-0.281 l 1.313,-9.266 a 2,2 0 0 1 1.938,-1.719 1.976,1.976 0 0 1 2.009,1.635 l 1.4,7.591 a 2,2 0 0 1 1.333,1.885 v 0.849 a 2,2 0 0 1 -1.15,1.811 l 0.146,33.59 h 38.859 v -14.883 a 2,2 0 0 1 1.787,-1.989 l 9.575,-1.029 a 1.989,1.989 0 0 1 2.139,1.449 l 0.811,-1.589 v -3.279 l -0.166,-0.018 a 2,2 0 0 1 -1.731,-2.474 l 0.413,-1.647 a 2,2 0 0 1 1.484,-1.462 v -1.347 a 2,2 0 0 1 0.75,-1.561 1.99,1.99 0 0 1 -0.461,-1.135 l -0.115,-1.544 a 1.991,1.991 0 0 1 0.159,-0.945 l 0.888,-2.046 a 2,2 0 0 1 2.163,-1.177 l 0.219,0.036 v -2.233 a 2,2 0 0 1 1.608,-1.961 l 0.2,-0.04 0.565,-1.132 c 0.031,-0.061 0.064,-0.12 0.1,-0.177 l 1.468,-2.317 c 0.033,-0.051 0.068,-0.1 0.1,-0.151 l 1.429,-1.853 1.538,-1.893 a 1.867,1.867 0 0 1 0.248,-0.255 l 3.99,-3.492 c 0.043,-0.038 0.088,-0.075 0.134,-0.109 l 1.164,-0.868 v -1.583 a 2,2 0 0 1 1.931,-2 l 1.39,-0.048 v -0.308 a 2.01,2.01 0 0 1 0.072,-0.534 l 0.623,-2.247 v -6.291 a 1.994,1.994 0 0 1 0.077,-0.549 l 0.386,-1.351 a 2,2 0 0 1 0.509,-0.866 l 0.965,-0.965 a 2.173,2.173 0 0 1 0.225,-0.194 l 0.192,-0.142 0.167,-0.772 -0.189,-1.515 a 1.987,1.987 0 0 1 0.044,-0.733 l 0.231,-0.927 a 2,2 0 0 1 0.429,-0.825 l 0.5,-0.579 a 2.005,2.005 0 0 1 1.119,-0.651 l 1.352,-0.271 a 1.989,1.989 0 0 1 1.807,0.548 l 0.657,0.656 a 1.991,1.991 0 0 1 0.388,0.551 l 0.425,0.887 a 2,2 0 0 1 0.2,0.864 v 0.849 a 2.026,2.026 0 0 1 -0.1,0.633 l -0.195,0.581 1.016,0.666 a 1.944,1.944 0 0 1 0.364,0.306 l 1.119,1.2 a 2,2 0 0 1 0.464,0.822 l 0.5,1.776 a 2,2 0 0 1 0.075,0.544 v 5.77 l 0.728,1.71 a 2,2 0 0 1 0.16,0.783 v 0.551 l 0.939,0.037 a 2,2 0 0 1 1.919,2 v 0.841 l 1.648,0.931 a 2.059,2.059 0 0 1 0.371,0.27 l 3.875,3.6 a 2.058,2.058 0 0 1 0.17,0.18 l 1.892,2.278 a 2.289,2.289 0 0 1 0.141,0.194 l 1.545,2.394 c 0.037,0.058 0.071,0.118 0.1,0.179 l 1.272,2.5 h 0.767 a 2,2 0 0 1 2,2 v 1.39 a 1.987,1.987 0 0 1 -0.225,0.921 2,2 0 0 1 0.784,0.4 v -0.212 l 0.272,-10.738 a 2,2 0 0 1 1.028,-1.7 l 1.043,-0.579 a 2,2 0 0 1 0.942,-0.252 l 1.882,-0.027 0.107,-0.561 a 1.984,1.984 0 0 1 0.284,-0.71 l 1.029,-1.595 a 2.047,2.047 0 0 1 0.239,-0.3 l 1.236,-1.287 a 1.95,1.95 0 0 1 0.208,-0.188 l 2.55,-2 1.01,-0.964 a 2.321,2.321 0 0 1 0.18,-0.151 l 0.975,-0.731 0.638,-0.926 0.29,-1.159 0.334,-3.155 v -2.212 a 2.038,2.038 0 0 1 0.06,-0.485 l 0.2,-0.791 V 60.28 a 2,2 0 0 1 0.892,-1.664 l 0.618,-0.412 a 2,2 0 0 1 0.935,-0.328 l 1.183,-0.1 a 1.993,1.993 0 0 1 1.423,0.431 l 0.465,0.371 0.977,0.684 a 2,2 0 0 1 0.854,1.639 v 1.236 a 2,2 0 0 1 -1.583,1.956 l 0.089,2.344 0.254,4.017 0.376,4.413 0.529,1.058 2.069,2.348 2.9,2.555 c 0.046,0.041 0.089,0.083 0.131,0.128 l 1.338,1.441 a 1.976,1.976 0 0 1 0.279,0.383 l 2.182,3.966 0.353,-0.035 0.087,-0.007 a 2,2 0 0 1 1.471,-0.2 l 0.825,0.206 a 2,2 0 0 1 1.5,1.7 l 1.389,11.635 a 2.079,2.079 0 0 1 0.014,0.237 v 15.125 l 0.825,0.687 a 2,2 0 0 1 0.72,1.537 v 2.8 l 1.558,1.634 a 2,2 0 0 1 0.552,1.38 V 137.1 h 9.333 v -32.495 a 2,2 0 0 1 2.049,-2 h 0.063 v -3.646 l -0.183,-0.2 a 2,2 0 0 1 0.183,-2.9 v -1.55 a 2,2 0 0 1 1.972,-2 l 7.465,-0.1 a 2.11,2.11 0 0 1 1.432,0.576 2,2 0 0 1 0.595,1.424 v 1.751 a 2,2 0 0 1 -0.177,3.126 l -0.029,0.02 v 3 l 12.111,-0.241 4.023,-11.7 a 2,2 0 0 1 1.892,-1.35 h 0.039 a 2.033,2.033 0 0 1 0.324,0.032 l 1.87,-17.448 a 2,2 0 0 1 1.959,-1.787 h 0.029 a 2,2 0 0 1 1.982,1.729 l 0.046,0.333 5.3,-36.1 0.92,-14.23 a 2,2 0 0 1 1.978,-1.871 h 0.018 a 2,2 0 0 1 1.993,1.836 l 1.177,14.325 6.046,34.819 a 2,2 0 0 1 1.938,-1.619 h 0.025 a 2,2 0 0 1 1.988,1.771 l 1.215,10.538 a 2,2 0 0 1 1.494,1.588 l 1.723,9.533 A 2,2 0 0 1 358.521,94 l 1.829,24.11 7.2,-1.756 0.365,-11.814 a 2,2 0 0 1 0.846,-1.572 l 0.028,-0.02 v -11.11 a 2,2 0 0 1 2,-2 h 1.081 a 2.436,2.436 0 0 0 1.932,0.111 l 1.132,0.1 a 2.033,2.033 0 0 1 0.346,0.062 2,2 0 0 1 1.584,-0.336 l 0.979,0.206 a 2,2 0 0 1 1.587,1.957 v 10.142 a 2,2 0 0 1 1.6,1.959 v 12.421 l 9.448,-1.334 -0.268,-11.865 a 2,2 0 0 1 1.029,-1.8 v -9.469 a 2,2 0 0 1 2,-2 h 1.029 a 2,2 0 0 0 1.957,0.206 h 0.875 a 2,2 0 0 0 1.441,-0.1 h 1.133 a 2,2 0 0 1 2,2 v 9.354 a 2,2 0 0 1 1.441,1.921 v 10.921 h 0.162 a 2,2 0 0 1 1.824,1.18 l 10.25,22.806 a 2,2 0 0 1 -1.823,2.821 z"
         class="b"
         style="fill:#ffffff;stroke:#ffffff;stroke-width:1.88976;stroke-miterlimit:4;stroke-dasharray:none;stroke-opacity:1" />
    </g>
  </g>
</svg>
